<?xml version="1.0" encoding="UTF-8" standalone="no"?>
<svg
   xmlns:dc="http://purl.org/dc/elements/1.1/"
   xmlns:cc="http://creativecommons.org/ns#"
   xmlns:rdf="http://www.w3.org/1999/02/22-rdf-syntax-ns#"
   xmlns:svg="http://www.w3.org/2000/svg"
   xmlns="http://www.w3.org/2000/svg"
   version="1.1"
   id="svg623"
   width="382.62344"
   height="159.91333"
   viewBox="0 0 382.62344 159.91333">
  <metadata
     id="metadata629">
    <rdf:RDF>
      <cc:Work
         rdf:about="">
        <dc:format>image/svg+xml</dc:format>
        <dc:type
           rdf:resource="http://purl.org/dc/dcmitype/StillImage" />
        <dc:title></dc:title>
      </cc:Work>
    </rdf:RDF>
  </metadata>
  <defs
     id="defs627" />
  <g
     id="g631"
     transform="translate(-2.8607725,-15.768608)">
    <path
       style="fill:#03334f;stroke:none;stroke-width:0.32"
       d="m 363.40421,89.688606 c 4.7264,1.0848 7.0848,6.52384 11.2,8.64 2.0448,-9.91328 0.5504,-20.82976 -3.6192,-30.08 -3.4848,-7.73152 -8.5824,-14.36224 -9.424,-23.068798 -0.6304,-6.51776 3.776,-13.54464 10.1632,-15.1664 3.6192,-0.91968 7.4016,0.0026 10.88,1.1152 l 2.88,-12.16 c -2.368,-1.578432 -5.5616,-1.550176 -8.32,-2.24 -12.7168,-3.178816 -23.44,2.627488 -28.48,14.72 -1.1936,2.8624 -1.0688,5.7776 -1.6,8.96 -1.216,7.296 1.6192,19.233598 6.08,26.879998 3.5488,6.0848 5.5648,12.21312 6.72,18.56 0.3296,1.81088 3.8688,2.44416 3.52,3.84 M 29.964208,15.768608 c -0.91673,11.51936 -4.69244,23.54656 -7.03901,34.88 -3.32617,16.064958 -5.486715,32.860478 -9.920987,48.639998 2.610464,-1.10528 4.567776,-3.54016 6.811357,-5.24032 3.68147,-2.78944 10.52999,-5.30368 13.04864,-9.21856 1.14026,-1.77248 1.28035,-4.63072 1.73975,-6.66112 1.01209,-4.47264 1.91769,-8.96672 2.92825,-13.44 3.6752,-16.264958 7.49728,-32.589438 10.672,-48.959998 h -18.24 m 140.160002,0.32 -7.04032,39.039998 -2.05888,11.52 -0.71776,5.37312 3.43296,3.30752 8.944,9.55936 c 0.55104,-2.66976 0.82656,-7.19392 3.84,-8 l 1.89472,25.920004 -0.29472,12.48 15.36,-0.32 c -1.73664,-9.35456 -1.13024,-19.315524 -1.5184,-28.800004 -0.10816,-2.65088 0.1152,-5.36064 -0.136,-8 -0.14144,-1.4864 -0.7328,-3.59264 -0.30112,-5.05184 0.5376,-1.81728 6.13632,-4.16288 7.71552,-5.44544 4.03936,-3.28064 6.4848,-7.82304 8.50336,-12.54272 1.42112,-3.3232 2.60128,-6.917758 2.69184,-10.559998 0.0787,-3.16256 -0.0163,-5.88384 -0.8736,-8.96 -4.824,-17.306304 -24.17728,-19.52 -39.4416,-19.52 m 89.28,16 12.48,0.32 c -1.86816,5.9072 -1.9776,12.76672 -3.2,18.879998 -2.42304,12.1168 -5.74624,24.80096 -6.72,37.12 h 0.32 c 2.9504,-3.29088 8.78688,-5.13152 12.8,-6.80608 1.6224,-0.6768 4.38176,-0.85536 5.27552,-2.57152 1.3584,-2.60864 1.1568,-6.62848 1.70176,-9.5024 1.59552,-8.4112 2.86336,-16.88192 4.54272,-25.279998 0.55392,-2.7696 1.0544,-5.54848 1.59968,-8.32 0.19392,-0.98464 0.184,-2.56256 1.0992,-3.19104 2.18496,-1.5008 8.72544,-0.32896 11.38112,-0.32896 l 2.88,-15.36 c -9.9696,0.641856 -20.09248,-0.64 -30.08,-0.64 -2.40224,0 -8.76768,-1.137888 -10.69152,0.328896 -0.9728,0.741568 -0.97952,3.038624 -1.216,4.151104 -0.79072,3.72 -1.44832,7.46624 -2.17248,11.2 m -202.560002,38.079998 12.8,-4.48 1.28,-0.64 c -2.81056,-9.75648 -10.05248,-16.843838 -4.8688,-27.519998 0.98784,-2.03488 2.59104,-3.78432 4.5488,-4.92992 1.80864,-1.05856 3.67904,-1.72128 5.76,-1.96832 3.04928,-0.36224 6.01024,1.02272 8.96,1.45824 l 2.56,-12.16 c -3.56192,-1.578944 -7.67488,-2.41728 -11.52,-2.966656 -3.03584,-0.43376 -6.28576,-0.409056 -9.28,0.302944 -16.01408,3.807872 -20.15296,24.009632 -16.6736,37.86371 1.3584,5.40896 3.8384,10.16384 6.4336,15.04 m 238.400002,6.08 h 0.32 c 2.70112,-1.4656 6.26656,-1.8112 9.28,-2.23968 1.2144,-0.1728 3.32,0.0323 4.34592,-0.64928 1.64224,-1.0912 2.45088,-5.23232 3.11616,-7.03104 2.39392,-6.4736 6.24928,-13.65088 7.25792,-20.479998 h 0.32 l -2.56,27.519998 9.6,0.68192 7.04,0.91808 0.9312,-19.52 1.6288,-37.759998 c -4.896,0 -9.856,0.17024 -14.72,-0.41136 -1.62528,-0.194368 -4.72736,-1.267936 -6.19232,-0.219744 -1.0352,0.74064 -1.31872,2.695904 -1.70112,3.831104 -0.97888,2.90528 -2.17888,5.74816 -3.208,8.64 -3.9152,11.00032 -8.12064,21.887358 -11.82496,32.959998 -1.09824,3.28288 -5.1888,10.57312 -3.6336,13.76 m -205.440002,-16.32 16.960002,-2.88 c 1.56576,-6.768638 3.7344,-14.558078 6.77728,-20.799998 0.96256,-1.9744 3.3488,-5.63072 6.02272,-4.76704 3.16832,1.02304 3.43808,4.57248 3.064,7.32704 -0.85888,6.32416 -2.41856,12.332798 -3.704,18.559998 l 17.28,3.2 c 2.05568,-10.600958 5.83104,-25.258558 -0.11264,-35.199998 -5.19808,-8.6944 -21.56928,-11.053408 -29.64736,-5.645184 -9.295362,6.223424 -11.983362,19.503744 -14.519362,29.645184 -0.75776,3.029758 -2.89184,7.499838 -2.12064,10.559998 M 196.36421,114.64861 h 9.28 l 4.02592,-0.32896 2.18976,-4.79104 4.0688,-10.880004 2.03872,-4.92704 3.6768,-0.52544 8.96,-0.30752 -1.28,18.880004 12.74592,-10.0128 5.48512,-4.724484 0.66048,-8.3024 0.95328,-16.32032 2.5552,-54.399998 -15.04,-0.66864 -5.87136,0.03754 -2.64064,6.391104 -6.66368,18.24 -25.14432,72.639998 m -18.24,-52.800004 c 0.60384,-7.5856 3.32096,-15.233914 4.71648,-22.719994 0.28096,-1.50784 0.21632,-6.5296 2.0496,-6.90944 6.024,-1.24736 8.09952,6.45216 7.54144,10.74944 -1.01664,7.827194 -6.76032,16.019514 -14.30752,18.879994 m 57.28,-16.319994 -3.2,31.999994 -8.64,0.64 -0.32,-0.32 8.10208,-21.76 4.05792,-10.559994 M 87.564208,66.968606 c -1.2512,8.50304 -2.896,16.6544 -3.5664,25.2752 -0.43008,5.52896 -0.53184,11.308484 2.25568,16.324804 6.49984,11.69664 23.375682,10.01504 32.018242,2.14752 7.896,-7.18816 10.21152,-20.466244 13.03936,-30.307524 1.27392,-4.43296 3.09312,-9.11648 3.29312,-13.76 l -17.28,-2.56 c -1.29536,9.62048 -4.35744,20.33152 -7.69696,29.44 -1.0656,2.90592 -3.19136,8.764804 -7.34144,6.3712 -3.405442,-1.96352 -2.621122,-6.63584 -2.295682,-9.8912 0.882242,-8.8224 3.574082,-17.2208 4.854082,-25.92 l -17.280002,2.88 m -27.52,9.92 c 0.71904,3.10848 2.04864,6.09504 2.46752,9.28 0.8752,6.65728 -2.75456,17.171204 -10.78752,16.611204 -3.74336,-0.2608 -6.28608,-2.43776 -9.6,-3.811204 -0.7824,3.413444 -1.59456,6.839684 -2.44064,10.240004 -0.28704,1.15456 -1.07872,2.9216 -0.42592,4.05472 1.35328,2.34912 5.6288,2.77312 7.98656,3.12192 7.8512,1.16224 16.60704,1.04544 22.6656,-4.99136 8.33568,-8.30528 9.34048,-19.760644 6.8864,-30.665284 -0.48192,-2.1408 -0.69952,-8.42912 -3.08096,-9.39424 -1.23136,-0.4992 -2.64608,0.55136 -3.76352,0.92608 -3.45664,1.1584 -6.67488,2.9344 -9.90752,4.62816 m 221.120002,37.760004 9.92,-0.2288 3.36032,-0.42016 2.14912,-4.79104 4.0736,-10.880004 2.10016,-4.92704 3.6768,-0.51296 h 8.96 l -1.92,21.760004 17.6,0.32 c 1.008,-7.97152 0.896,-16.019524 1.6544,-24.000004 0.176,-1.84608 1.4432,-7.24288 0.256,-8.72256 -1.3952,-1.74048 -7.1584,-1.82592 -9.2704,-2.21184 -4.3472,-0.79456 -8.62976,-1.87104 -13.12,-1.48992 -3.06464,0.26016 -5.92992,1.39072 -8.96,1.82272 -2.42528,0.3456 -7.54912,0.43424 -9.37536,2.19456 -1.90144,1.83264 -2.59968,6.57248 -3.42464,9.04704 -2.45664,7.37024 -6.54752,15.372484 -7.68,23.040004 m -122.56,-35.200004 -6.72,35.840004 13.76,-0.32 c 0.28672,-6.6608 4.33152,-13.23136 4.24352,-19.840004 -0.0755,-5.66336 -6.85344,-12.90912 -11.28352,-15.68 m 107.52,13.12 c -1.84864,0.12416 -4.3936,1.42272 -5.45984,2.98432 -0.89376,1.30944 -0.87648,3.49184 -1.22176,5.015684 -1.02144,4.50592 -2.39968,9.46272 -2.5984,14.08 h 16.64 l 5.44,-28.160004 c -3.01056,0.0352 -11.71904,3.03264 -12.8,6.08 m -255.679999,21.760004 10.239997,0.50528 5.02298,-0.0582 1.97654,-5.24704 3.56048,-15.680004 c -2.41632,1.02144 -4.68301,3.02944 -6.72,4.67584 -5.00176,4.042244 -13.935133,8.786244 -14.079997,15.804164 M 358.60421,94.168646 c -0.304,1.27872 -0.7648,2.44064 -1.5328,3.52 -5.12,7.184964 -11.1328,2.896004 -17.3472,0.32 -1.0368,3.246084 -1.6192,6.615364 -2.4416,9.920004 -0.2784,1.12992 -1.12,2.95936 -0.6528,4.1008 1.1104,2.72512 6.7328,3.1408 9.1744,3.49248 7.4944,1.07968 15.6672,0.49088 21.44,-5.04576 1.216,-1.16544 4.1984,-3.82304 3.8784,-5.74624 -0.1824,-1.09888 -1.4432,-1.91616 -1.9584,-2.88128 l -10.56,-7.680004 m -123.2,20.800004 10.88,0.32 0.96,-9.6 c -3.48512,1.03296 -10.00384,6.15104 -11.84,9.28 m -22.0752,5.34752 c -3.05056,0.71712 -3.90048,9.0448 -0.006,8.29664 3.37792,-0.64864 3.67424,-9.1584 0.006,-8.29664 m 6.4288,0.015 c -2.82624,1.10272 -2.87264,9.95968 0.9136,8.41088 3.22144,-1.31744 3.0384,-9.95328 -0.9136,-8.41088 m -137.952642,0.96896 c -3.12864,1.01888 -4.1728,9.0592 -0.006,7.55392 2.79616,-1.01024 3.9328,-8.83296 0.006,-7.55392 m 70.079042,0.66592 c -2.98624,0.4784 -4.8736,8.30144 -0.96,7.83552 3.04256,-0.36256 4.80608,-8.45184 0.96,-7.83552 m -60.803842,0.2864 c -3.1744,0.2016 -5.70144,8.0064 -1.59136,8.0064 3.55072,0 5.11168,-8.2304 1.59136,-8.0064 m 66.303042,-0.005 c -2.51488,1.04576 -3.62976,8.9088 0.25984,7.5184 3.29056,-1.17632 3.71168,-9.17024 -0.25984,-7.5184 M 11.724211,160.72861 c 9.936387,-0.0275 13.551937,-7.4368 14.628637,-16.32 0.62752,-5.17728 0.65101,-10.95488 -5.34864,-12.59488 -2.14486,-0.58624 -8.814941,-1.65248 -10.688157,-0.19616 -1.3607675,1.0576 -1.3149755,5.40768 -1.6076475,7.03104 -1.282368,7.11264 -2.368672,14.29568 -3.472093,21.44 -0.560534,3.62912 -1.203673,7.27296 -1.895062,10.88 -0.179869,0.93824 -0.949501,3.0976 -0.05926,3.83104 0.984922,0.81152 5.050285,0.66432 5.785197,-0.4128 1.9946235,-2.9232 2.5063035,-10.1568 2.6570235,-13.65824 m 70.719999,-29.29952 c -3.70848,0.58272 -6.23168,2.85408 -7.71968,6.25952 -3.59584,8.23008 -6.25664,18.8208 -6.03552,27.84 0.16256,6.64256 4.72928,10.6048 11.5152,9.496 4.6976,-0.76736 6.47328,-4.776 7.88992,-8.856 0.73376,-2.11296 1.35488,-4.23488 1.91168,-6.4 2.23232,-8.68352 8.64896,-30.88608 -7.5616,-28.33952 m 194.240002,-0.14048 c -2.00576,4.09792 -2.2384,9.61248 -3.07552,14.08 -1.73184,9.24416 -4.51584,19.42656 -4.92448,28.8 l 14.08,0.32 0.64,-6.08 -7.04,-0.32 2.24,-12.48 c 1.64416,0.10944 5.48736,1.16256 6.76544,-0.19296 1.06112,-1.12576 0.94016,-4.36928 1.23456,-5.88704 l -6.72,-0.32 2.24,-10.88 8,-0.32 0.61856,-5.88704 -3.81856,-0.51296 -10.24,-0.32 m -155.52,44.16 c -0.0947,-4.58784 -0.58656,-9.16192 -0.64128,-13.76 -0.0179,-1.51584 -0.66336,-3.33504 -0.12576,-4.8 0.848,-2.30944 3.4512,-3.74656 4.50688,-6.08 1.84064,-4.0688 3.87776,-13.95072 0.0317,-17.47392 -1.95072,-1.78656 -5.45696,-1.72608 -7.93152,-1.72608 -1.47264,0 -4.67264,-0.6 -5.89152,0.32896 -1.68224,1.2816 -1.88224,6.94336 -2.24416,8.95104 -1.47136,8.15776 -3.58272,16.17504 -5.1088,24.32 -0.43616,2.328 -0.8352,4.69408 -1.15552,7.04 -0.10144,0.74336 -0.4928,1.98208 0.19776,2.55104 0.88608,0.73024 5.12288,0.70112 5.88608,-0.184 0.72256,-0.8384 0.74656,-2.5984 0.95616,-3.64704 0.57696,-2.88544 1.33568,-5.74272 1.84,-8.64 0.14272,-0.81888 0.4176,-4.9296 1.9168,-4.36928 1.3648,0.51008 0.88096,5.6992 0.86752,6.92928 -0.0275,2.54336 0.17056,5.1248 0.17568,7.68 0.002,0.7744 -0.1808,2.0016 0.51296,2.55104 1.23232,0.976 4.68704,0.32896 6.20704,0.32896 m 12.8,-0.64 c 1.52704,0 4.58944,0.58912 5.87232,-0.32896 2.47168,-1.76864 1.45888,-6.69984 3.63232,-8.75808 0.68384,-0.64736 1.79072,-0.50048 2.65536,-0.60448 5.74528,-0.6896 3.52,5.968 3.52,10.01152 h 7.04 l 0.96,-43.52 c -2.1568,0 -6.99904,-0.912 -8.80032,0.32896 -2.24608,1.5472 -3.448,8.3152 -4.31872,10.87104 -2.3968,7.03456 -4.78912,14.0704 -7.14752,21.12 -1.18688,3.54688 -2.86464,7.16416 -3.41344,10.88 m 116.16,-25.92 -5.12,0.32 2.88,-16.64 c -1.59296,0 -6.27168,-0.79168 -7.35584,0.51296 -0.64544,0.77728 -0.61568,2.36864 -0.77664,3.32704 -0.46656,2.78112 -1.03712,5.53536 -1.49312,8.32 -1.6048,9.79776 -3.82304,19.5952 -5.0944,29.44 h 6.72 l 3.84,-18.24 h 4.8 l -3.2,18.24 c 1.63488,0 5.48672,0.71648 6.80384,-0.32896 1.85376,-1.47136 2.00032,-8.24928 2.51328,-10.55104 2.3104,-10.36992 3.38528,-21.08736 6.04288,-31.36 -1.64032,-0.27744 -5.784,-0.41952 -7.17152,0.64864 -0.97824,0.75296 -0.93152,3.03072 -1.14848,4.15136 -0.7648,3.95072 -2.0672,8.14528 -2.24,12.16 m 52.16,-10.88 h 5.76 l -2.9456,14.7744 -4.4144,21.7056 6.4,0.32 4.62368,-21.44 2.73632,-15.36 c 5.0688,0 5.99456,-1.02816 7.04,-6.08 l -13.12,-0.32 -4.61152,0.32896 -1.46848,6.07104 m 53.44,-6.4 -1.28,6.08 h 5.44 c 0.7264,3.34144 -0.8096,7.27808 -1.472,10.56 -1.696,8.4112 -5.1776,17.65504 -5.248,26.24 l 6.4,0.32 c 2.7424,-11.95648 6.3936,-24.54624 7.36,-36.8 l 4.9408,-0.32896 2.0992,-5.75104 -18.24,-0.32 m -314.560002,0.32 1.04032,27.2 -3.92032,16 c 1.86368,0.22368 6.65504,1.22816 8.13152,-0.19296 1.06976,-1.02976 1.02336,-3.54784 1.23648,-4.92704 0.53792,-3.48448 1.16928,-7.16672 2.12768,-10.56 2.69728,-9.55168 10.8368,-17.48512 13.14432,-27.2 -11.01376,-3.25568 -9.29312,10.3248 -14.4,16 v -16.32 h -7.36 m 128.960002,42.56 h 15.68 l 0.64,-6.4 h -8 l 4.37184,-22.08 2.98816,-14.08 c -1.54304,0 -5.93248,-0.75648 -6.98752,0.51296 -1.82208,2.19328 -1.81536,7.912 -2.42816,10.68704 -1.33824,6.05856 -2.31712,12.18016 -3.6672,18.24 -0.95008,4.264 -2.50656,8.736 -2.59712,13.12 m 25.92,0.64 5.92032,-0.32896 3.81728,-9.0336 6.2624,-0.55744 -0.32,10.24 h 7.04 c 0,-10.86176 0.95936,-21.77216 0.96,-32.64 3.2e-4,-2.58048 0.25376,-5.11584 0.3152,-7.68 0.0202,-0.83008 0.23616,-2.2816 -0.50816,-2.87104 -1.34368,-1.06432 -8.25152,-0.8176 -9.11392,0.6784 -3.05152,5.29344 -4.5488,12.39936 -6.47968,18.19264 -2.62784,7.88352 -6.20768,15.85472 -7.89344,24 m 139.2,-43.2 -5.2544,26.88 -3.0656,16 c 1.5072,0 5.2864,0.68736 6.3712,-0.51296 1.9456,-2.15264 1.8912,-7.9024 2.5504,-10.68704 2.48,-10.46496 4.0736,-21.13056 6.1184,-31.68 h -6.72 m -251.507522,5.97184 c 3.32608,-1.00896 1.82464,5.1184 1.62912,6.50816 -0.88544,6.29696 -2.2176,12.76704 -3.97472,18.88 -0.50368,1.75296 -1.23872,5.11488 -3.4256,5.50368 -2.76672,0.49184 -1.39776,-5.76832 -1.23136,-7.10368 0.75712,-6.08352 2.45056,-12.0112 3.99136,-17.92 0.44896,-1.72192 1.01664,-5.26304 3.0112,-5.86816 m -70.732479,16.10816 3.2,-16 c 5.858689,1.5408 2.797119,15.9456 -3.2,16 m 100.800001,-2.56 2.56,-13.44 c 6.58784,0.15936 3.50688,13.3856 -2.56,13.44 m 36.48,-6.4 -0.32,13.12 -4.48,0.32 c 0.89088,-3.84896 2.44896,-10.29696 4.8,-13.44 m 62.08,0.32 -0.32,13.12 -4.16,0.32 c 0.33216,-3.80512 2.4432,-10.20288 4.48,-13.44 z"
       id="path639" />
  </g>
</svg>
