<?xml version="1.0" encoding="UTF-8" standalone="no"?>
<svg
   xmlns:dc="http://purl.org/dc/elements/1.1/"
   xmlns:cc="http://creativecommons.org/ns#"
   xmlns:rdf="http://www.w3.org/1999/02/22-rdf-syntax-ns#"
   xmlns:svg="http://www.w3.org/2000/svg"
   xmlns="http://www.w3.org/2000/svg"
   width="37.100681mm"
   height="49.770863mm"
   viewBox="0 0 37.100681 49.770863"
   version="1.1"
   id="svg8">
  <defs
     id="defs2" />
  <metadata
     id="metadata5">
    <rdf:RDF>
      <cc:Work
         rdf:about="">
        <dc:format>image/svg+xml</dc:format>
        <dc:type
           rdf:resource="http://purl.org/dc/dcmitype/StillImage" />
        <dc:title></dc:title>
      </cc:Work>
    </rdf:RDF>
  </metadata>
  <g
     id="layer1"
     transform="translate(81.978318,141.13941)">
    <path
       style="fill:#083652;stroke:none;stroke-width:0.0846667"
       d="m -62.722691,-139.59156 h -0.169333 c -0.161544,-0.67955 -0.815509,-1.42049 -1.496145,-0.74267 -0.37321,0.37173 -0.482007,0.93198 -0.620522,1.42 -0.104648,-0.24291 -0.157141,-0.52498 -0.291422,-0.75286 -0.853525,-1.4482 -1.504781,0.89235 -1.655911,1.43019 h -0.169333 c -0.307594,-0.59083 -1.174496,-1.0358 -1.593512,-0.25028 -0.221149,0.41461 -0.09847,1.05712 -0.184488,1.52028 -0.266785,-0.20324 -0.473033,-0.48504 -0.76327,-0.65799 -1.876468,-1.11834 -1.438572,1.74408 -1.607397,2.52066 h -0.169333 c -0.374904,-0.75998 -1.36288,-0.64986 -1.712892,0.0847 -0.301921,0.63339 -0.02819,1.43674 -0.06511,2.1166 -0.287612,-0.12076 -0.541036,-0.33053 -0.846666,-0.40608 -1.913568,-0.47304 -1.015221,1.8731 -0.931334,2.69208 -0.184539,-0.15113 -0.360036,-0.29658 -0.592793,-0.36821 -0.160215,-0.0493 -0.342248,-0.0634 -0.507873,-0.0355 -1.653024,0.27932 -0.145898,2.00703 -0.514926,2.75133 -0.176649,0.35619 -0.917177,-0.11269 -1.26183,-0.006 -1.131333,0.35001 -0.616805,1.77444 -0.255244,2.48437 -0.304724,0.0959 -0.633205,0.16138 -0.93003,0.27627 -1.452186,0.56236 0.221886,2.17145 0.08336,3.02573 -0.201744,-0.0288 -0.389831,-0.0497 -0.592794,-0.0116 -1.662495,0.31158 -0.275556,1.83888 -0.169206,2.63627 -0.233993,0.0107 -0.456099,0.034 -0.677333,0.11879 -1.700834,0.65168 -0.155855,1.7504 0.08467,2.67521 -0.780601,0.0703 -1.775479,0.91499 -1.274899,1.7747 0.203322,0.34916 0.959558,0.63974 0.90958,1.09609 -0.04231,0.38625 -0.713609,0.46601 -0.947079,0.71823 -0.9378,1.01329 0.350152,1.63534 0.889065,2.25298 -1.700937,0.17535 -1.208069,2.03928 0,2.54 -0.694367,0.53755 -1.444647,1.32427 -0.581365,2.18542 0.215232,0.21463 0.999813,0.44467 0.999991,0.7835 1.27e-4,0.24233 -0.329523,0.42021 -0.459782,0.59471 -0.262035,0.35086 -0.295809,0.9564 -0.0895,1.34332 0.277004,0.5196 1.311665,0.33207 1.44626,0.78808 0.08904,0.30167 -0.454762,0.65109 -0.571958,0.90932 -0.589864,1.29972 0.791168,1.26221 1.542356,1.43899 -0.316645,0.59555 -1.010022,2.025816 0.169401,2.255436 0.372288,0.0725 0.71396,-0.19126 1.100599,-0.13877 -0.275361,0.662264 -0.8456,2.015491 0.423333,2.063328 0.334959,0.0127 0.689949,-0.13335 1.016,-0.20066 -0.143391,0.634662 -0.555531,2.206244 0.762,1.875706 0.304834,-0.07654 0.567936,-0.29845 0.846667,-0.436372 -0.344906,0.615696 -0.329531,1.730586 0.592751,1.79451 0.420794,0.02921 0.758783,-0.234273 1.100583,-0.439844 -0.07679,0.607314 -0.05012,2.102189 1.016,1.704086 0.490982,-0.183388 0.762423,-0.684868 1.27,-0.857419 -0.221573,0.749554 0.133858,1.767078 1.097026,1.353905 0.37321,-0.160105 0.493014,-0.576242 0.76564,-0.845905 0.139362,1.535684 1.862413,1.498261 2.201334,0.08467 h 0.08467 c 0.224282,1.609682 1.552448,0.493437 1.862667,-0.423334 h 0.08467 c 0.01922,0.647023 0.665649,1.348232 1.338749,0.868511 0.388112,-0.276691 0.567944,-0.938191 0.693251,-1.376511 h 0.169333 c 0.280585,0.722038 1.246886,1.209802 1.790107,0.412327 0.287782,-0.422487 0.11938,-0.975275 0.495893,-1.34366 0.137414,0.666411 1.09093,1.078399 1.536023,0.414105 0.348064,-0.51943 0.140208,-1.414696 0.326644,-2.022772 h 0.169333 c 0.273219,0.615612 1.141137,1.123527 1.582081,0.334942 0.273897,-0.489797 0.209974,-1.309032 0.280586,-1.858942 0.244432,0.127931 0.42672,0.343154 0.675216,0.46482 1.445515,0.707983 0.92219,-1.776901 1.323171,-2.208361 0.296164,-0.3186 0.981625,0.0308 1.387009,-0.17738 1.024975,-0.52654 0.35196,-1.780196 0.424604,-2.651076 0.275674,0.0118 0.572939,0.0964 0.846666,0.0522 1.225466,-0.19778 0.745067,-1.39268 0.677334,-2.16891 1.757595,0.70426 0.933788,-1.62349 1.127929,-2.36568 0.121497,-0.46474 0.825161,-0.32334 1.114552,-0.69156 0.493945,-0.62839 -0.1143,-1.47938 -0.295148,-2.10744 0.88773,0.16468 1.980946,-0.35517 1.732534,-1.43933 -0.124883,-0.545 -0.644737,-0.84971 -0.547201,-1.43933 0.872067,0.13877 1.840738,-0.43714 1.554565,-1.43925 -0.134874,-0.47244 -0.524679,-0.7145 -0.877231,-1.01609 0.911521,-0.35424 1.738714,-1.21183 1.275249,-2.286 -0.120057,-0.27821 -0.81153,-0.78697 -0.72136,-1.08847 0.05656,-0.18915 0.398611,-0.23072 0.543137,-0.32868 0.367876,-0.24917 0.5461,-0.68546 0.502073,-1.12158 -0.06426,-0.63804 -1.17602,-0.81212 -1.097788,-1.43696 0.09559,-0.76301 1.37033,-0.77859 1.145963,-1.86631 -0.130894,-0.6344 -1.00711,-0.85403 -1.08585,-1.35466 -0.0447,-0.28431 0.529252,-0.60198 0.660062,-0.84794 0.450003,-0.84607 -0.54737,-1.36262 -1.221486,-1.52273 0.419354,-0.59267 1.619842,-1.79265 0.414189,-2.40005 -0.403183,-0.2032 -0.912791,-0.11192 -1.345523,-0.22462 0.434086,-0.49267 1.403858,-1.75039 0.323004,-2.22317 -0.26814,-0.11727 -0.629666,-0.0628 -0.91567,-0.0628 0.249258,-0.65853 1.210733,-2.23138 -0.254085,-2.34466 -0.44704,-0.0346 -0.809159,0.23197 -1.269915,0.14333 0.308948,-0.63186 1.41478,-2.33066 -0.08467,-2.34708 -0.478367,-0.005 -0.858436,0.33283 -1.354667,0.31508 0.136821,-0.42948 0.478536,-0.80167 0.484378,-1.27 0.01338,-1.07432 -1.133348,-0.72681 -1.669711,-0.33867 0.326644,-0.8485 0.322918,-2.33315 -1.016,-1.905 -0.358563,0.11468 -0.62848,0.42423 -0.931333,0.635 0.256371,-0.8674 -0.095,-2.16636 -1.26238,-1.63382 -0.39116,0.17842 -0.654643,0.64764 -0.938954,0.95649 0.137668,-0.74148 -0.0011,-2.27175 -1.177713,-1.59651 -0.32004,0.1837 -0.532299,0.56033 -0.76962,0.83451 -0.08822,-1.63124 -1.648545,-0.88401 -2.032,0.16933 -0.130048,-0.30224 -0.182118,-0.66109 -0.382101,-0.92761 -0.899414,-1.19848 -1.714923,0.28119 -1.988566,1.09695 m 1.185334,-0.762 c 0.07654,0.22673 0.155532,0.45378 0.2413,0.67726 0.637878,1.66247 1.511554,-0.38156 2.129366,-0.5926 0,0.22486 -0.01033,0.45287 0.0037,0.67734 0.10922,1.74047 1.621874,-0.21359 2.112941,-0.508 -0.0053,0.25827 -0.04911,0.50557 -0.06993,0.762 -0.01143,0.13989 -0.01524,0.28622 0.02201,0.42301 0.37321,1.36875 1.623483,-0.44036 2.164588,-0.59235 -0.0047,0.56884 -0.304716,2.25293 0.846666,1.85882 0.486326,-0.16646 0.809075,-0.62914 1.27,-0.84282 -0.0215,0.46973 -0.313351,0.89656 -0.307001,1.35467 0.0166,1.18885 1.312926,0.45635 1.831001,0.16933 -0.06494,0.63414 -0.900345,2.17355 0.508,2.01293 0.435525,-0.0497 0.737108,-0.33862 1.185333,-0.23493 -0.21446,0.61869 -1.230799,1.99495 -0.0834,2.31207 0.309457,0.0855 1.14046,-0.35213 1.322578,-0.0584 0.28194,0.45483 -1.412832,2.32207 0.200152,2.20125 0.226314,-0.017 0.451866,-0.10372 0.677334,-0.13691 -0.173906,0.87393 -1.602825,2.43925 0.254,2.61587 0.251375,0.0239 0.509693,0.009 0.762,0.009 -0.39895,0.69029 -1.59021,1.70824 -0.42291,2.33324 0.295486,0.15825 0.631867,0.21912 0.93091,0.37609 -0.213106,0.62154 -1.029547,0.93362 -0.823892,1.69334 0.143934,0.53187 1.194054,0.73423 1.092116,1.27042 -0.13987,0.73618 -1.476926,0.97815 -1.323256,1.86224 0.109136,0.62857 1.170517,0.77606 1.170517,1.35222 0,0.54356 -0.987383,0.56184 -0.960374,1.27245 0.0254,0.6676 1.065869,1.15223 0.943779,1.77639 -0.143171,0.73254 -1.421976,0.49903 -1.514263,1.35636 -0.0701,0.65151 1.078399,1.07358 0.92837,1.59682 -0.134281,0.46854 -1.115399,0.24807 -1.382437,0.77749 -0.446194,0.88443 0.679365,1.51841 0.365929,2.26974 -0.204301,0.48989 -1.205061,0.19254 -1.592411,0.69359 -0.572516,0.74041 0.518076,1.18678 0.323258,1.83202 -0.07747,0.25663 -0.718566,0.3131 -0.919311,0.54415 -0.61976,0.71324 -0.301498,1.56855 -0.118025,2.36145 -0.188638,-0.043 -0.397764,-0.12649 -0.592752,-0.12251 -1.407075,0.0291 -0.173228,1.80103 -0.643974,2.27245 -0.295402,0.29574 -0.845736,0.002 -1.199558,0.33105 -0.666326,0.6201 0.02108,1.42341 -0.372872,2.07814 -0.29591,0.491826 -1.024382,-0.14783 -1.490726,0.356526 -0.661585,0.71535 -0.228431,1.65583 -0.610785,2.450344 -0.267208,-0.215476 -0.50292,-0.609094 -0.846752,-0.702054 -1.09203,-0.29498 -1.074504,1.704423 -1.100582,2.310721 h -0.08467 c -0.119126,-0.165269 -0.232918,-0.345017 -0.378376,-0.489035 -1.190244,-1.178814 -1.47193,1.439842 -1.653624,2.013035 h -0.169334 c -0.07256,-0.184912 -0.143002,-0.352128 -0.277537,-0.503428 -1.073235,-1.2076 -1.263481,1.048766 -1.585129,1.519428 -0.130641,-0.193632 -0.251122,-0.403775 -0.403183,-0.581575 -1.094147,-1.279737 -1.435185,1.035981 -1.967484,1.343575 -0.02836,-0.610362 -0.586909,-1.543727 -1.251966,-0.91169 -0.399119,0.379391 -0.450003,0.973158 -0.864701,1.335024 -0.06663,-0.224875 -0.06257,-0.451866 -0.120057,-0.677249 -0.420878,-1.648799 -1.528911,0.322665 -2.081276,0.592582 -0.02201,-0.170434 -0.04259,-0.342307 -0.08966,-0.508423 -0.430784,-1.520444 -1.379389,0.216831 -1.942338,0.508423 -0.02828,-0.252984 0.01134,-0.511133 -0.02904,-0.762 -0.269324,-1.669796 -1.53272,-0.01168 -2.172292,0.169333 8.4e-5,-0.487002 0.233595,-2.047917 -0.70121,-1.847257 -0.454999,0.09771 -0.685461,0.565658 -1.161457,0.661924 0.02845,-0.621284 0.578612,-2.780792 -0.931334,-1.924304 -0.262153,0.148759 -0.499804,0.335788 -0.762,0.484971 -0.07722,-0.625264 0.619862,-1.534584 -0.33997,-1.853947 -0.336448,-0.112014 -1.034661,0.401744 -1.262947,0.106172 -0.211235,-0.273558 0.188637,-0.77081 0.245838,-1.04623 0.220675,-1.06257 -0.879196,-0.90881 -1.521587,-0.762 0.0057,-0.63991 0.632231,-1.430776 0.323443,-2.030386 -0.253771,-0.49293 -1.381294,-0.33435 -1.430773,-0.61333 -0.0992,-0.55913 1.03356,-0.83676 0.588416,-1.67394 -0.298348,-0.56109 -1.319183,-0.42054 -1.452787,-0.85954 -0.186995,-0.61442 0.887138,-1.00321 0.73417,-1.68072 -0.179984,-0.79723 -1.205289,-0.58717 -1.453447,-1.19457 -0.238006,-0.58259 0.86531,-0.8365 0.85046,-1.42985 -0.01498,-0.59808 -0.82898,-0.65345 -0.921605,-1.18897 -0.103734,-0.59978 0.825271,-0.79527 0.943686,-1.35137 0.181678,-0.85318 -1.098449,-0.95258 -1.08127,-1.60409 0.0099,-0.37567 0.708948,-0.60367 0.93428,-0.85496 0.746955,-0.83312 0.01,-1.64135 -0.743907,-2.11295 0.172399,-0.60739 0.802505,-0.6151 1.122486,-1.1043 0.501777,-0.76717 -0.497984,-1.48904 -0.783819,-2.11303 0.250021,-0.0741 0.514638,-0.0615 0.761932,-0.13995 1.606389,-0.50961 -0.138675,-1.79655 0.03071,-2.55685 0.08063,-0.36187 0.55074,-0.22818 0.81269,-0.30328 0.32258,-0.0924 0.578214,-0.41961 0.689949,-0.72525 0.305485,-0.83575 -0.643509,-1.41402 -0.686613,-2.20134 0.329446,9.4e-4 0.69789,0.12599 1.016,0.0936 1.424576,-0.14478 0.312394,-2.05368 0.254,-2.71831 0.839724,0.42206 2.12587,0.18584 2.016912,-1.016 -0.03696,-0.40759 -0.527981,-1.02422 -0.353763,-1.4108 0.142943,-0.31716 0.596934,0.0761 0.792184,0.1369 0.384116,0.11947 0.727727,-0.0991 0.930546,-0.42282 0.485242,-0.77445 -0.401642,-1.55567 -0.168546,-2.36728 0.343603,0.1137 0.651171,0.42045 1.016,0.44915 1.355937,0.10668 1.192192,-1.82345 1.185334,-2.65049 0.19304,0.12983 0.378968,0.29214 0.592836,0.38695 1.571328,0.69684 1.160102,-1.76103 1.354497,-2.41895 0.376513,0.19218 0.747437,0.62935 1.185333,0.66087 0.974514,0.0702 1.028616,-1.30131 1.016,-1.93087 0.324189,0.17279 0.555244,0.56531 0.931334,0.63566 0.752094,0.14065 1.089067,-1.02165 1.100666,-1.56699 h 0.08467 c 0.0889,0.16607 0.170265,0.34642 0.301329,0.48488 1.00838,1.06555 1.495382,-0.89999 1.815338,-1.50088 0.157141,0.20971 0.225128,0.46482 0.381846,0.67577 0.955125,1.28596 1.36542,-0.6067 1.904154,-1.0991 m -11.938001,16.08666 -0.423333,1.94734 c -1.099405,0 -2.535885,0.0986 -3.230008,1.10193 -0.843492,1.21912 -0.856945,3.39192 -0.921994,4.82473 -0.104124,2.29379 -0.165998,4.56151 -0.165998,6.858 0,1.87495 0.04488,3.94387 0.87437,5.67268 0.299279,0.62374 0.941815,1.33418 1.6653,1.42249 1.128048,0.13766 1.572192,-0.6102 2.385644,0.52484 0.444754,0.62053 -0.364329,1.32648 -0.540546,1.947336 -0.317093,1.11717 0.39602,2.116244 1.287899,2.702646 2.127589,1.398947 5.472853,2.509097 8.043333,2.159254 2.120731,-0.288713 3.5179,-1.398609 3.048,-3.67657 0.311743,-0.11819 0.68072,-0.4903 1.016,-0.48243 0.400389,0.009 0.753534,0.52705 1.100667,0.69816 0.824907,0.40657 1.751415,0.0248 2.455333,-0.44848 0.892133,-0.59986 1.655318,-1.465746 2.314618,-2.307246 1.944793,-2.48234 3.715766,-5.57539 4.768257,-8.55134 0.378545,-1.07044 0.935906,-2.56261 0.264076,-3.63728 -0.385488,-0.61671 -1.36288,-0.79943 -2.01295,-1.01939 l 0.592666,-2.032 c 1.80611,0.43002 2.614253,-0.72398 2.817622,-2.37058 0.294894,-2.38887 -0.410379,-5.00973 -1.07552,-7.28142 -0.727626,-2.48471 -1.931586,-5.20979 -3.488521,-7.28133 -0.589534,-0.78448 -1.395476,-1.75614 -2.402248,-1.98719 -1.262718,-0.28978 -1.588177,0.80739 -2.588768,1.09466 -0.334264,0.0959 -0.872066,-0.24125 -1.221232,-0.29281 -0.02413,-2.91951 -2.617978,-3.09949 -4.826,-2.37073 -3.93065,1.29732 -7.12199,4.6039 -9.701615,7.70473 -0.907118,1.09034 -3.012643,3.81398 -0.881718,4.82135 0.271814,0.12852 0.550765,0.21437 0.846666,0.25865 m 11.853334,-12.16776 c 2.136394,-0.2419 1.127845,2.14481 2.624667,2.70999 0.471085,0.17789 1.394968,0.69675 1.89738,0.54158 0.822621,-0.25408 1.257554,-1.57944 2.335868,-1.02632 1.115315,0.57211 1.929639,2.09434 2.476077,3.16918 0.694944,1.36703 1.067562,2.86283 1.532467,4.318 0.736177,2.30403 1.609175,4.82727 1.571159,7.27371 -0.01126,0.7245 -0.307678,1.58276 -1.092284,1.74507 -0.371094,0.0767 -0.922952,-0.0842 -1.229784,0.17627 -0.283802,0.24097 -0.265938,0.63475 -0.337989,0.96495 -0.157141,0.72034 -0.523071,1.3915 -0.651087,2.11667 -0.193717,1.09762 1.807803,0.77969 1.843448,1.86275 0.03124,0.95013 -0.427228,1.98365 -0.689356,2.87858 -0.493692,1.68597 -1.288119,3.24417 -2.035302,4.82601 -0.686986,1.45441 -1.311149,2.95089 -2.572936,4.02683 -0.767842,0.65481 -2.05613,1.532216 -3.131989,1.373376 -0.622808,-0.0919 -0.977138,-1.302596 -1.609006,-0.883496 -0.424857,0.28186 -1.378881,0.915496 -1.538224,1.411226 -0.126153,0.39234 0.112184,0.86174 0.08331,1.268731 -0.08644,1.216067 -1.018116,1.790108 -2.185754,1.931755 -2.210986,0.268055 -4.828286,-0.808144 -6.688667,-1.914737 -0.540427,-0.321479 -1.524508,-0.658459 -1.762083,-1.294639 -0.348827,-0.93404 0.890355,-1.597406 0.878332,-2.447716 -0.0068,-0.47557 -0.514519,-0.8774 -0.817203,-1.18863 -0.321564,-0.33079 -0.934449,-1.21217 -1.431713,-1.22699 -0.622909,-0.0185 -1.350967,0.94742 -1.950212,0.19499 -0.810404,-1.0177 -0.953152,-2.96428 -1.093538,-4.21404 -0.32893,-2.92811 -0.245999,-5.54897 0.06637,-8.46667 0.138142,-1.29032 0.105029,-2.97925 0.72881,-4.14833 0.545364,-1.02218 1.828318,-0.51011 2.668245,-0.9801 0.578629,-0.32376 0.721377,-1.23495 0.930419,-1.81424 0.172127,-0.47692 0.522563,-1.26932 0.135975,-1.71263 -0.531623,-0.60952 -1.877712,-0.51435 -1.595629,-1.67403 0.293777,-1.20769 1.409277,-2.3037 2.190581,-3.21734 2.547112,-2.9783 6.455241,-6.12749 10.449645,-6.57976 m -3.471333,8.86576 -2.624667,10.24467 1.524,0.508 1.852845,-6.858 0.941155,-3.47133 -1.693333,-0.42334 m 6.011333,2.37067 -2.794,10.24467 1.524,0.508 c 0.473964,-3.51993 2.686219,-6.69485 3.302,-10.16 l -2.032,-0.59267 m 4.233333,9.99067 -1.185333,-0.33867 c -0.828887,3.03064 -2.888488,6.69239 -5.418667,8.5891 -2.226818,1.66929 -5.239173,1.66362 -7.278031,-0.29964 -2.251541,-2.16814 -2.204635,-5.64727 -2.204635,-8.54346 0,-1.17593 -0.04581,-2.397 0.169333,-3.556 -0.233934,-0.0483 -0.652103,-0.23292 -0.869696,-0.079 -0.500211,0.3539 -0.4572,2.05892 -0.491575,2.61865 -0.164422,2.67716 -0.150368,5.45033 0.927185,7.95901 1.366774,3.18212 5.877391,5.0734 9.070086,3.50478 2.899071,-1.42435 4.869011,-4.09635 6.180582,-6.97612 0.405723,-0.89069 0.934297,-1.91219 1.100751,-2.87866 m 7.874001,4.14866 -0.08467,0.0847 z"
       id="path348" />
  </g>
</svg>
